<?xml version="1.0" encoding="utf-8"?>
<!-- Svg Vector Icons : http://www.onlinewebfonts.com/icon -->
<!DOCTYPE svg PUBLIC "-//W3C//DTD SVG 1.1//EN" "http://www.w3.org/Graphics/SVG/1.1/DTD/svg11.dtd">
<svg version="1.1" xmlns="http://www.w3.org/2000/svg" xmlns:xlink="http://www.w3.org/1999/xlink" x="0px" y="0px" viewBox="0 0 256 256" enable-background="new 0 0 256 256" xml:space="preserve">
<metadata> Svg Vector Icons : http://www.onlinewebfonts.com/icon </metadata>
<g><g><path fill="#000000" d="M128,206.7c-57.9,0-118-59-118-78.7c0-26,60.1-78.7,118-78.7c57.9,0,118,58.8,118,78.7C246,148.7,185.9,206.7,128,206.7z M128,62.4c-50.7,0-104.9,43.9-104.9,65.6c0,16.4,54.2,65.5,104.9,65.5c50.7,0,104.9-50,104.9-65.5C232.9,112,178.7,62.4,128,62.4z M128,167.3c-21.7,0-39.3-17.6-39.3-39.3s17.6-39.3,39.3-39.3c21.7,0,39.3,17.6,39.3,39.3S149.7,167.3,128,167.3z"/></g></g>
</svg>